<?xml version="1.0" encoding="UTF-8" standalone="no"?>
<!-- Uploaded to: SVG Repo, www.svgrepo.com, Transformed by: SVG Repo Mixer Tools -->

<svg
   fill="#ffffff"
   width="64px"
   height="64px"
   viewBox="-9.5 0 32 32"
   version="1.1"
   stroke="#ffffff"
   id="svg1"
   sodipodi:docname="step.svg"
   inkscape:version="1.3.2 (091e20e, 2023-11-25, custom)"
   xmlns:inkscape="http://www.inkscape.org/namespaces/inkscape"
   xmlns:sodipodi="http://sodipodi.sourceforge.net/DTD/sodipodi-0.dtd"
   xmlns="http://www.w3.org/2000/svg"
   xmlns:svg="http://www.w3.org/2000/svg">
  <defs
     id="defs1" />
  <sodipodi:namedview
     id="namedview1"
     pagecolor="#ffffff"
     bordercolor="#000000"
     borderopacity="0"
     inkscape:showpageshadow="2"
     inkscape:pageopacity="0.0"
     inkscape:pagecheckerboard="0"
     inkscape:deskcolor="#d1d1d1"
     inkscape:zoom="13.078125"
     inkscape:cx="32"
     inkscape:cy="32"
     inkscape:window-width="1920"
     inkscape:window-height="1051"
     inkscape:window-x="2391"
     inkscape:window-y="-9"
     inkscape:window-maximized="1"
     inkscape:current-layer="SVGRepo_iconCarrier" />
  <g
     id="SVGRepo_bgCarrier"
     stroke-width="0" />
  <g
     id="SVGRepo_tracerCarrier"
     stroke-linecap="round"
     stroke-linejoin="round" />
  <g
     id="SVGRepo_iconCarrier"
     style="fill:#eeb3b3;fill-opacity:1;stroke:#000000;stroke-opacity:0.12146422;stroke-width:0.67340878;stroke-dasharray:none;stroke-dashoffset:0"
     transform="matrix(2.2332338,0,0,2.3600828,-8.3033679,-21.74221)">
    <title
       id="title1">step-right</title>
    <path
       id="path1"
       style="fill:#ffffff;fill-opacity:1;stroke:none;stroke-width:0.673409;stroke-dasharray:none;stroke-dashoffset:0;stroke-opacity:0.121464"
       d="m 12.349609,10.166016 c -0.592844,0.267551 -0.201046,1.105766 -0.314453,1.617968 0,1.179427 0,2.358855 0,3.538282 -3.7078876,-1.705985 -7.4047356,-3.440547 -11.12304662,-5.121094 -0.73075085,-0.0082 -0.40921456,0.977645 -0.4765625,1.43164 0.0117371,3.299726 -0.0234624,6.602685 0.0175781,9.900391 0.28591345,0.695243 1.0580543,-0.04264 1.5023483,-0.166035 3.3597808,-1.564039 6.7205086,-3.126046 10.0796827,-4.691387 0.02391,1.643129 -0.04761,3.297111 0.03516,4.933594 0.362875,0.598301 1.000659,-0.07709 0.773438,-0.5875 -0.02103,-3.541283 0.04193,-7.091761 -0.03125,-10.627344 -0.06924,-0.182782 -0.279099,-0.267369 -0.462891,-0.228515 z M 1.8261719,11.486328 C 5.0396649,12.990989 8.253587,14.494734 11.466797,16 8.0465864,17.602336 4.6254108,19.202612 1.2050781,20.804688 c 0,-3.203126 0,-6.40625 0,-9.609376 0.2070313,0.09701 0.4140625,0.194011 0.6210938,0.291016 z" />
  </g>
</svg>
